<svg xmlns="http://www.w3.org/2000/svg" viewBox="0 0 100 100" width="100" height="100">
  <path d="M50 5 C 47 12, 53 16, 50 22" fill="none" stroke="#26221c" stroke-width="5" stroke-linecap="round"/>
  <ellipse cx="50" cy="24" rx="9" ry="6.5" fill="#d75a48"/>
  <rect x="44" y="27" width="12" height="4" rx="2" fill="#26221c"/>
  <g fill="none" stroke="#26221c" stroke-width="4.6" stroke-linecap="round">
    <path d="M36 32 Q 35 60 34 84"/>
    <path d="M42 32 Q 41 62 40 87"/>
    <path d="M46 32 Q 46 64 46 88"/>
    <path d="M50 32 Q 50 66 50 90"/>
    <path d="M54 32 Q 54 64 54 88"/>
    <path d="M58 32 Q 59 62 60 87"/>
    <path d="M64 32 Q 65 60 66 84"/>
  </g>
</svg>